<svg width="32" height="32" viewBox="0 0 32 32" fill="none" xmlns="http://www.w3.org/2000/svg">
<g clip-path="url(#clip0_2010_10936)">
<path fill-rule="evenodd" clip-rule="evenodd" d="M26.667 6.66113C27.3742 6.66113 28.0525 6.94208 28.5526 7.44218C29.0527 7.94228 29.3337 8.62056 29.3337 9.3278V22.6611C29.3337 23.3684 29.0527 24.0467 28.5526 24.5467C28.0525 25.0468 27.3742 25.3278 26.667 25.3278H5.33366C4.62641 25.3278 3.94814 25.0468 3.44804 24.5467C2.94794 24.0467 2.66699 23.3684 2.66699 22.6611V9.3278C2.66699 8.62056 2.94794 7.94228 3.44804 7.44218C3.94814 6.94208 4.62641 6.66113 5.33366 6.66113H26.667ZM5.50033 18.6611L5.33366 18.6651V21.3398C5.49923 21.3159 5.66801 21.3279 5.82855 21.375C5.98908 21.422 6.13761 21.5031 6.26408 21.6126C6.39054 21.7221 6.49197 21.8575 6.56149 22.0097C6.631 22.1618 6.66699 22.3272 6.66699 22.4945L6.66433 22.5785L6.65366 22.6611H9.32832L9.33366 22.4945C9.33366 21.4778 8.92979 20.5028 8.2109 19.7839C7.49201 19.065 6.51699 18.6611 5.50033 18.6611ZM26.5003 18.6611C25.5227 18.6611 24.582 19.0347 23.8706 19.7054C23.1593 20.3761 22.7311 21.2932 22.6737 22.2691L22.667 22.4945C22.667 22.5505 22.667 22.6065 22.671 22.6611H25.3457C25.3197 22.4816 25.3361 22.2985 25.3933 22.1264C25.4505 21.9542 25.5471 21.7978 25.6754 21.6695C25.8037 21.5413 25.9601 21.4447 26.1322 21.3874C26.3043 21.3302 26.4875 21.3139 26.667 21.3398V18.6651L26.5003 18.6611ZM16.0003 10.6611C14.5858 10.6611 13.2293 11.223 12.2291 12.2232C11.2289 13.2234 10.667 14.58 10.667 15.9945C10.667 17.409 11.2289 18.7655 12.2291 19.7657C13.2293 20.7659 14.5858 21.3278 16.0003 21.3278C17.4148 21.3278 18.7714 20.7659 19.7716 19.7657C20.7718 18.7655 21.3337 17.409 21.3337 15.9945C21.3337 14.58 20.7718 13.2234 19.7716 12.2232C18.7714 11.223 17.4148 10.6611 16.0003 10.6611ZM16.0003 13.3278C16.7076 13.3278 17.3858 13.6088 17.8859 14.1088C18.386 14.6089 18.667 15.2872 18.667 15.9945C18.667 16.7017 18.386 17.38 17.8859 17.8801C17.3858 18.3802 16.7076 18.6611 16.0003 18.6611C15.2931 18.6611 14.6148 18.3802 14.1147 17.8801C13.6146 17.38 13.3337 16.7017 13.3337 15.9945C13.3337 15.2872 13.6146 14.6089 14.1147 14.1088C14.6148 13.6088 15.2931 13.3278 16.0003 13.3278ZM9.33366 9.3278H6.66699V9.49447C6.66699 9.66176 6.631 9.82709 6.56149 9.97925C6.49197 10.1314 6.39054 10.2668 6.26408 10.3764C6.13761 10.4859 5.98908 10.5669 5.82855 10.614C5.66801 10.661 5.49923 10.673 5.33366 10.6491V13.3238L5.50033 13.3278C6.00373 13.3278 6.5022 13.2286 6.96728 13.036C7.43236 12.8434 7.85494 12.561 8.2109 12.205C8.56686 11.8491 8.84922 11.4265 9.04186 10.9614C9.23451 10.4963 9.33366 9.99787 9.33366 9.49447V9.3278ZM25.3457 9.3278H22.671L22.667 9.49447C22.667 10.4721 23.0406 11.4128 23.7112 12.1241C24.3819 12.8355 25.299 13.2637 26.275 13.3211L26.5843 13.3265L26.667 13.3238V10.6491C26.5014 10.673 26.3326 10.661 26.1721 10.614C26.0116 10.5669 25.863 10.4859 25.7366 10.3764C25.6101 10.2668 25.5087 10.1314 25.4392 9.97925C25.3696 9.82709 25.3337 9.66176 25.3337 9.49447L25.3363 9.41047L25.3457 9.3278Z" fill="#85BB65"/>
</g>
<defs>
<clipPath id="clip0_2010_10936">
<rect width="32" height="32" fill="white" transform="translate(0 -0.00585938)"/>
</clipPath>
</defs>
</svg>
