<svg width="32" height="32" viewBox="0 0 32 32" fill="none" xmlns="http://www.w3.org/2000/svg">
<g clip-path="url(#clip0_2010_10924)">
<path d="M16.0003 2.66113C23.3643 2.66113 29.3337 8.63047 29.3337 15.9945C29.3337 23.3585 23.3643 29.3278 16.0003 29.3278C8.63633 29.3278 2.66699 23.3585 2.66699 15.9945C2.66699 8.63047 8.63633 2.66113 16.0003 2.66113ZM20.7137 11.1691L14.1137 17.7691L11.287 14.9411C11.1632 14.8173 11.0162 14.719 10.8544 14.6519C10.6927 14.5848 10.5193 14.5503 10.3441 14.5502C9.99044 14.5501 9.65118 14.6905 9.40099 14.9405C9.1508 15.1905 9.01018 15.5296 9.01006 15.8833C9.00993 16.237 9.15031 16.5763 9.40033 16.8265L13.0777 20.5038C13.2139 20.6401 13.3756 20.7482 13.5536 20.8219C13.7316 20.8957 13.9223 20.9336 14.115 20.9336C14.3077 20.9336 14.4984 20.8957 14.6764 20.8219C14.8544 20.7482 15.0161 20.6401 15.1523 20.5038L22.6003 13.0558C22.8505 12.8056 22.9911 12.4663 22.9911 12.1125C22.9911 11.7586 22.8505 11.4193 22.6003 11.1691C22.3501 10.9189 22.0108 10.7784 21.657 10.7784C21.3032 10.7784 20.9638 10.9189 20.7137 11.1691Z" fill="#85BB65"/>
</g>
<defs>
<clipPath id="clip0_2010_10924">
<rect width="32" height="32" fill="white" transform="translate(0 -0.00585938)"/>
</clipPath>
</defs>
</svg>
