<svg width="48" height="48" viewBox="0 0 48 48" fill="none" xmlns="http://www.w3.org/2000/svg">
<rect x="0.5" y="0.5" width="47" height="47" rx="23.5" stroke="#000F0A"/>
<g clip-path="url(#clip0_264_8235)">
<path fill-rule="evenodd" clip-rule="evenodd" d="M27.7073 23.2932C27.8948 23.4807 28.0001 23.735 28.0001 24.0002C28.0001 24.2653 27.8948 24.5197 27.7073 24.7072L22.0503 30.3642C21.9581 30.4597 21.8478 30.5359 21.7257 30.5883C21.6037 30.6407 21.4725 30.6683 21.3397 30.6694C21.207 30.6706 21.0753 30.6453 20.9524 30.595C20.8295 30.5447 20.7178 30.4705 20.6239 30.3766C20.5301 30.2827 20.4558 30.171 20.4055 30.0481C20.3552 29.9252 20.3299 29.7936 20.3311 29.6608C20.3322 29.528 20.3598 29.3968 20.4122 29.2748C20.4647 29.1528 20.5408 29.0424 20.6363 28.9502L25.5863 24.0002L20.6363 19.0502C20.4542 18.8616 20.3534 18.609 20.3557 18.3468C20.3579 18.0846 20.4631 17.8338 20.6485 17.6484C20.8339 17.463 21.0847 17.3578 21.3469 17.3555C21.6091 17.3532 21.8617 17.454 22.0503 17.6362L27.7073 23.2932Z" fill="#000F0A"/>
</g>
<defs>
<clipPath id="clip0_264_8235">
<rect width="24" height="24" fill="white" transform="translate(12 12)"/>
</clipPath>
</defs>
</svg>
