<svg width="32" height="32" viewBox="0 0 32 32" fill="none" xmlns="http://www.w3.org/2000/svg">
<g clip-path="url(#clip0_2010_10912)">
<path d="M5.33301 12.6608C5.86344 12.6608 6.37215 12.8715 6.74722 13.2466C7.12229 13.6216 7.33301 14.1303 7.33301 14.6608C7.33286 16.5548 8.06551 18.3754 9.37753 19.7414C10.6896 21.1073 12.4792 21.9127 14.3717 21.9888L14.6663 21.9941H17.8423C17.5055 21.6193 17.3226 21.1312 17.3301 20.6274C17.3377 20.1235 17.5351 19.6411 17.883 19.2765C18.2309 18.912 18.7035 18.6922 19.2065 18.6611C19.7094 18.63 20.2055 18.7899 20.5957 19.1088L20.7477 19.2461L24.081 22.5794C24.4012 22.8985 24.6034 23.317 24.6543 23.7661L24.6663 23.9754V24.0128C24.6632 24.4748 24.4991 24.9213 24.2023 25.2754L24.073 25.4154L20.7477 28.7421C20.3919 29.101 19.9135 29.3119 19.4085 29.3325C18.9036 29.353 18.4096 29.1816 18.0258 28.8528C17.6421 28.5239 17.3971 28.062 17.34 27.5599C17.283 27.0578 17.4182 26.5527 17.7183 26.1461L17.8423 25.9941H14.6663C11.6606 25.9941 8.77788 24.8001 6.65246 22.6747C4.52705 20.5492 3.33301 17.6666 3.33301 14.6608C3.33301 14.1303 3.54372 13.6216 3.91879 13.2466C4.29387 12.8715 4.80257 12.6608 5.33301 12.6608ZM11.253 3.24744C11.6099 2.89423 12.0866 2.68818 12.5884 2.67023C13.0902 2.65227 13.5804 2.82372 13.9616 3.15053C14.3428 3.47733 14.5871 3.93557 14.6461 4.43422C14.705 4.93287 14.5742 5.43545 14.2797 5.84211L14.157 5.99411H17.333C20.3388 5.99411 23.2215 7.18816 25.3469 9.31357C27.4723 11.439 28.6663 14.3217 28.6663 17.3274C28.6663 17.8579 28.4556 18.3666 28.0806 18.7417C27.7055 19.1167 27.1968 19.3274 26.6663 19.3274C26.1359 19.3274 25.6272 19.1167 25.2521 18.7417C24.8771 18.3666 24.6663 17.8579 24.6663 17.3274C24.6665 15.4334 23.9338 13.6128 22.6218 12.2469C21.3098 10.8809 19.5202 10.0755 17.6277 9.99944L17.333 9.99411H14.157C14.4938 10.3689 14.6767 10.857 14.6692 11.3609C14.6617 11.8647 14.4642 12.3471 14.1164 12.7117C13.7685 13.0762 13.2958 13.296 12.7929 13.3271C12.29 13.3582 11.7938 13.1983 11.4037 12.8794L11.253 12.7408L7.91967 9.40744C7.56936 9.05738 7.36139 8.58979 7.33602 8.09519C7.31065 7.6006 7.46969 7.11419 7.78234 6.73011L7.91967 6.57811L11.253 3.24478V3.24744Z" fill="#85BB65"/>
</g>
<defs>
<clipPath id="clip0_2010_10912">
<rect width="32" height="32" fill="white" transform="translate(0 -0.00585938)"/>
</clipPath>
</defs>
</svg>
